<svg xmlns="http://www.w3.org/2000/svg"  viewBox="0 0 64 64" width="128px" height="128px"><linearGradient id="PcIXDlMlNVuu_nz1h73AAa" x1="37" x2="37" y1="25.75" y2="30.37" gradientUnits="userSpaceOnUse" spreadMethod="reflect"><stop offset="0" stop-color="#6dc7ff"/><stop offset="1" stop-color="#e6abff"/></linearGradient><circle cx="37" cy="28" r="2" fill="url(#PcIXDlMlNVuu_nz1h73AAa)"/><linearGradient id="PcIXDlMlNVuu_nz1h73AAb" x1="27" x2="27" y1="25.75" y2="30.37" gradientUnits="userSpaceOnUse" spreadMethod="reflect"><stop offset="0" stop-color="#6dc7ff"/><stop offset="1" stop-color="#e6abff"/></linearGradient><circle cx="27" cy="28" r="2" fill="url(#PcIXDlMlNVuu_nz1h73AAb)"/><linearGradient id="PcIXDlMlNVuu_nz1h73AAc" x1="32" x2="32" y1="31.083" y2="35.251" gradientUnits="userSpaceOnUse" spreadMethod="reflect"><stop offset="0" stop-color="#6dc7ff"/><stop offset="1" stop-color="#e6abff"/></linearGradient><path fill="url(#PcIXDlMlNVuu_nz1h73AAc)" d="M34,31h-4c-0.552,0-1,0.448-1,1c0,1.657,1.343,3,3,3s3-1.343,3-3C35,31.448,34.552,31,34,31z"/><linearGradient id="PcIXDlMlNVuu_nz1h73AAd" x1="32" x2="32" y1="5" y2="59.002" gradientUnits="userSpaceOnUse" spreadMethod="reflect"><stop offset="0" stop-color="#1a6dff"/><stop offset="1" stop-color="#c822ff"/></linearGradient><path fill="url(#PcIXDlMlNVuu_nz1h73AAd)" d="M48,12h-3v-1c0-1.103-0.897-2-2-2h-6.424C35.802,7.237,34.045,6,32,6s-3.802,1.237-4.576,3H20 c-1.103,0-2,0.897-2,2v1h-2c-2.206,0-4,1.794-4,4v38c0,2.206,1.794,4,4,4h32c2.206,0,4-1.794,4-4V16C52,13.794,50.206,12,48,12z M37,11h6v1h-6V11z M29,11c0-1.654,1.346-3,3-3s3,1.346,3,3l0.002,7H29V11z M29,20h6c1.103,0,2-0.897,2-2h9v22H18V18h9 C27,19.103,27.897,20,29,20z M46,42v10H18V42H46z M20,11h7v1h-7V11z M50,54c0,1.103-0.897,2-2,2H16c-1.103,0-2-0.897-2-2V16 c0-1.103,0.897-2,2-2h11v2h-9c-1.103,0-2,0.897-2,2v34c0,1.103,0.897,2,2,2h28c1.103,0,2-0.897,2-2V18c0-1.103-0.897-2-2-2h-9v-2h11 c1.103,0,2,0.897,2,2V54z"/><linearGradient id="PcIXDlMlNVuu_nz1h73AAe" x1="24" x2="24" y1="5" y2="59.002" gradientUnits="userSpaceOnUse" spreadMethod="reflect"><stop offset="0" stop-color="#1a6dff"/><stop offset="1" stop-color="#c822ff"/></linearGradient><rect width="8" height="2" x="20" y="44" fill="url(#PcIXDlMlNVuu_nz1h73AAe)"/><linearGradient id="PcIXDlMlNVuu_nz1h73AAf" x1="24" x2="24" y1="5" y2="59.002" gradientUnits="userSpaceOnUse" spreadMethod="reflect"><stop offset="0" stop-color="#1a6dff"/><stop offset="1" stop-color="#c822ff"/></linearGradient><rect width="8" height="2" x="20" y="48" fill="url(#PcIXDlMlNVuu_nz1h73AAf)"/><linearGradient id="PcIXDlMlNVuu_nz1h73AAg" x1="39" x2="39" y1="5" y2="59.002" gradientUnits="userSpaceOnUse" spreadMethod="reflect"><stop offset="0" stop-color="#1a6dff"/><stop offset="1" stop-color="#c822ff"/></linearGradient><rect width="2" height="4" x="38" y="46" fill="url(#PcIXDlMlNVuu_nz1h73AAg)"/><linearGradient id="PcIXDlMlNVuu_nz1h73AAh" x1="43" x2="43" y1="5" y2="59.002" gradientUnits="userSpaceOnUse" spreadMethod="reflect"><stop offset="0" stop-color="#1a6dff"/><stop offset="1" stop-color="#c822ff"/></linearGradient><rect width="2" height="4" x="42" y="46" fill="url(#PcIXDlMlNVuu_nz1h73AAh)"/><linearGradient id="PcIXDlMlNVuu_nz1h73AAi" x1="35" x2="35" y1="5" y2="59.002" gradientUnits="userSpaceOnUse" spreadMethod="reflect"><stop offset="0" stop-color="#1a6dff"/><stop offset="1" stop-color="#c822ff"/></linearGradient><rect width="2" height="4" x="34" y="46" fill="url(#PcIXDlMlNVuu_nz1h73AAi)"/><linearGradient id="PcIXDlMlNVuu_nz1h73AAj" x1="40" x2="40" y1="10.25" y2="13.335" gradientUnits="userSpaceOnUse" spreadMethod="reflect"><stop offset="0" stop-color="#6dc7ff"/><stop offset="1" stop-color="#e6abff"/></linearGradient><rect width="6" height="1" x="37" y="11" fill="url(#PcIXDlMlNVuu_nz1h73AAj)"/><linearGradient id="PcIXDlMlNVuu_nz1h73AAk" x1="23.5" x2="23.5" y1="10.25" y2="13.335" gradientUnits="userSpaceOnUse" spreadMethod="reflect"><stop offset="0" stop-color="#6dc7ff"/><stop offset="1" stop-color="#e6abff"/></linearGradient><rect width="7" height="1" x="20" y="11" fill="url(#PcIXDlMlNVuu_nz1h73AAk)"/></svg>