<svg xmlns="http://www.w3.org/2000/svg"  viewBox="0 0 40 40" width="40px" height="40px"><path fill="#99c99e" d="M0.5 5.5H39.5V34.5H0.5z"/><path fill="#5e9c76" d="M39,6v28H1V6H39 M40,5H0v30h40V5L40,5z"/><path fill="#ffeea3" d="M3.117 20L20 8.393 36.883 20 20 31.607z"/><path fill="#5e9c76" d="M20,9l16,11L20,31L4,20L20,9 M20,7.786l-0.567,0.389l-16,11L2.235,20l1.199,0.824l16,11L20,32.214 l0.567-0.389l16-11L37.765,20l-1.199-0.824l-16-11L20,7.786L20,7.786z"/><path fill="#fff" d="M20,26.5c-3.584,0-6.5-2.916-6.5-6.5s2.916-6.5,6.5-6.5s6.5,2.916,6.5,6.5S23.584,26.5,20,26.5z"/><path fill="#a3b7cc" d="M20,14c3.308,0,6,2.692,6,6s-2.692,6-6,6s-6-2.692-6-6S16.692,14,20,14 M20,13c-3.866,0-7,3.134-7,7 s3.134,7,7,7s7-3.134,7-7S23.866,13,20,13L20,13z"/><path fill="#8bb7f0" d="M20,26.5c-3.584,0-6.5-2.916-6.5-6.5c0-0.175,0.007-0.348,0.021-0.519 c4.613,0.031,7.443,0.517,11.964,4.008C24.295,25.357,22.233,26.5,20,26.5z M26.486,20.422c-4.296-3.081-7.653-3.832-11.966-3.914 C15.675,14.701,17.7,13.5,20,13.5c3.584,0,6.5,2.916,6.5,6.5C26.5,20.14,26.495,20.28,26.486,20.422z"/><path fill="#4e7ab5" d="M20,14c3.126,0,5.702,2.404,5.976,5.46c-3.706-2.48-6.781-3.254-10.479-3.421 C16.598,14.789,18.208,14,20,14 M14,19.986c4.175,0.059,6.759,0.572,10.803,3.611C23.678,25.097,21.907,26,20,26 c-3.308,0-6-2.692-6-6C14,19.995,14,19.991,14,19.986 M20,13c-3.865,0-7,3.135-7,7c0,3.865,3.135,7,7,7 c2.658,0,4.971-1.483,6.156-3.666c-0.011,0.006-0.02,0.016-0.031,0.021c-4.931-3.895-7.866-4.369-13.042-4.374 c0.102-0.699,0.307-1.363,0.6-1.979c4.707,0.003,8.236,0.58,13.184,4.323c0.001,0.004,0.001,0.009,0.003,0.013 C26.953,20.903,27,20.457,27,20C27,16.135,23.865,13,20,13L20,13z"/><path fill="#8bb7f0" d="M26.157,23.333c0.152-0.28,0.278-0.575,0.391-0.876C26.435,22.758,26.308,23.053,26.157,23.333z"/><path fill="#4e7ab5" d="M26.548,22.457c-0.105,0.279-0.221,0.553-0.358,0.815C26.327,23.01,26.443,22.737,26.548,22.457 L26.548,22.457z M26.189,23.272c-0.011,0.02-0.022,0.041-0.033,0.061C26.168,23.313,26.178,23.292,26.189,23.272L26.189,23.272z"/><g><path fill="#8bb7f0" d="M26.869,21.336c-0.064,0.329-0.155,0.648-0.262,0.958C26.715,21.984,26.805,21.665,26.869,21.336z"/><path fill="#4e7ab5" d="M26.869,21.336c-0.002,0.01-0.004,0.021-0.006,0.031C26.865,21.357,26.867,21.347,26.869,21.336 L26.869,21.336z M26.863,21.367L26.863,21.367L26.863,21.367L26.863,21.367z M26.863,21.367c0,0.002-0.001,0.004-0.001,0.006 C26.862,21.371,26.863,21.369,26.863,21.367L26.863,21.367z M26.862,21.373c0,0.002-0.001,0.003-0.001,0.005 C26.861,21.377,26.861,21.375,26.862,21.373L26.862,21.373z M26.861,21.378C26.861,21.379,26.861,21.379,26.861,21.378 C26.861,21.379,26.861,21.379,26.861,21.378L26.861,21.378z M26.861,21.379c-0.063,0.314-0.151,0.618-0.254,0.916 C26.71,21.997,26.797,21.693,26.861,21.379L26.861,21.379z"/></g><path fill="#fff" d="M22.5 23A.5.5 0 1 0 22.5 24 .5.5 0 1 0 22.5 23zM20.5 24A.5.5 0 1 0 20.5 25 .5.5 0 1 0 20.5 24zM15.5 21A.5.5 0 1 0 15.5 22 .5.5 0 1 0 15.5 21z"/></svg>