<svg xmlns="http://www.w3.org/2000/svg"  viewBox="0 0 64 64" width="128px" height="128px"><linearGradient id="wCfjpiMsL_n2B_0O4uotea" x1="32" x2="32" y1="12.5" y2="23.25" gradientUnits="userSpaceOnUse" spreadMethod="reflect"><stop offset="0" stop-color="#6dc7ff"/><stop offset="1" stop-color="#e6abff"/></linearGradient><path fill="url(#wCfjpiMsL_n2B_0O4uotea)" d="M32.902,15.035l0.585,1.07c0.094,0.172,0.236,0.314,0.409,0.409l1.07,0.585 c0.713,0.39,0.713,1.414,0,1.804l-1.07,0.585c-0.172,0.094-0.314,0.236-0.409,0.409l-0.585,1.07c-0.39,0.713-1.414,0.713-1.804,0 l-0.585-1.07c-0.094-0.172-0.236-0.314-0.409-0.409l-1.07-0.585c-0.713-0.39-0.713-1.414,0-1.804l1.07-0.585 c0.172-0.094,0.314-0.236,0.409-0.409l0.585-1.07C31.488,14.322,32.512,14.322,32.902,15.035z"/><linearGradient id="wCfjpiMsL_n2B_0O4uoteb" x1="32" x2="32" y1="4.25" y2="59.278" gradientUnits="userSpaceOnUse" spreadMethod="reflect"><stop offset="0" stop-color="#1a6dff"/><stop offset="1" stop-color="#c822ff"/></linearGradient><path fill="url(#wCfjpiMsL_n2B_0O4uoteb)" d="M56,37c0-3.519-2.614-6.432-6-6.92V30c0-5.177-2.227-10.065-6.102-13.486 C43.162,10.598,38.113,6,32,6c-6.114,0-11.164,4.599-11.898,10.517C16.227,19.939,14,24.822,14,30v0.08c-3.386,0.488-6,3.401-6,6.92 c0,3.677,2.851,6.693,6.456,6.973C16.272,51.991,23.442,58,32,58s15.728-6.009,17.544-14.027C53.149,43.693,56,40.677,56,37z M32,8 c5.514,0,10,4.486,10,10c0,4.447-2.99,8.4-7.272,9.613L34,27.819V32h-4v-4.181l-0.728-0.206C24.99,26.4,22,22.447,22,18 C22,12.486,26.486,8,32,8z M29,36c-0.552,0-1-0.448-1-1v-1h8v1c0,0.552-0.448,1-1,1H29z M10,37c0-2.415,1.721-4.434,4-4.898v2.083 c-1.161,0.414-2,1.514-2,2.815c0,1.302,0.839,2.402,2,2.816V40c0,0.646,0.038,1.282,0.104,1.91C11.775,41.485,10,39.451,10,37z M48,40c0,8.823-7.178,16-16,16s-16-7.177-16-16V30c0-3.967,1.478-7.735,4.086-10.651c0.518,4.522,3.593,8.428,7.914,9.958V32h-2v3 c0,1.654,1.346,3,3,3c0,1.103,0.897,2,2,2h2c1.103,0,2-0.897,2-2c1.654,0,3-1.346,3-3v-3h-2v-2.694 c4.322-1.53,7.397-5.437,7.914-9.958C46.523,22.264,48,26.035,48,30V40z M49.896,41.91C49.962,41.282,50,40.646,50,40v-0.184 c1.161-0.414,2-1.514,2-2.816c0-1.302-0.839-2.401-2-2.815v-2.083c2.279,0.464,4,2.484,4,4.898 C54,39.451,52.225,41.485,49.896,41.91z"/><linearGradient id="wCfjpiMsL_n2B_0O4uotec" x1="32" x2="32" y1="4.25" y2="59.278" gradientUnits="userSpaceOnUse" spreadMethod="reflect"><stop offset="0" stop-color="#1a6dff"/><stop offset="1" stop-color="#c822ff"/></linearGradient><path fill="url(#wCfjpiMsL_n2B_0O4uotec)" d="M32,26c4.411,0,8-3.589,8-8h-2c0,3.309-2.691,6-6,6s-6-2.691-6-6h-2 C24,22.411,27.589,26,32,26z"/><linearGradient id="wCfjpiMsL_n2B_0O4uoted" x1="32" x2="32" y1="4.25" y2="59.278" gradientUnits="userSpaceOnUse" spreadMethod="reflect"><stop offset="0" stop-color="#1a6dff"/><stop offset="1" stop-color="#c822ff"/></linearGradient><path fill="url(#wCfjpiMsL_n2B_0O4uoted)" d="M25,45c0,3.86,3.141,7,7,7s7-3.14,7-7v-1H25V45z M31.987,49.999c0.009,0,0.017,0,0.026,0 C32.009,49.999,32.004,50,32,50S31.991,49.999,31.987,49.999z M36.899,46c-0.212,1.039-0.757,1.949-1.505,2.646 c-2.257-0.858-4.532-0.858-6.789,0c-0.747-0.697-1.293-1.607-1.505-2.646H36.899z"/></svg>