<svg xmlns="http://www.w3.org/2000/svg"  viewBox="0 0 64 64" width="128px" height="128px"><linearGradient id="dPhi9T_Oj5g4qQ9hVZsNMa" x1="20" x2="20" y1="22.404" y2="27.681" gradientUnits="userSpaceOnUse"><stop offset="0" stop-color="#6dc7ff"/><stop offset="1" stop-color="#e6abff"/></linearGradient><path fill="url(#dPhi9T_Oj5g4qQ9hVZsNMa)" d="M28,28H12c-0.552,0-1-0.448-1-1v-4c0-0.552,0.448-1,1-1h16c0.552,0,1,0.448,1,1v4	C29,27.552,28.552,28,28,28z"/><linearGradient id="dPhi9T_Oj5g4qQ9hVZsNMb" x1="32" x2="32" y1="6.66" y2="56.989" gradientUnits="userSpaceOnUse"><stop offset="0" stop-color="#1a6dff"/><stop offset="1" stop-color="#c822ff"/></linearGradient><path fill="url(#dPhi9T_Oj5g4qQ9hVZsNMb)" d="M46,12.025V11c0-2.757-2.243-5-5-5H18.656c-1.335,0-2.591,0.52-3.535,1.464l-7.657,7.657 C6.52,16.066,6,17.322,6,18.657V48v1v4c0,2.757,2.243,5,5,5h30c2.757,0,5-2.243,5-5v-4v-1V36.976c6.729-0.267,12-5.746,12-12.476 C58,17.776,52.66,12.291,46,12.025z M16,9.414V15c0,0.551-0.449,1-1,1H9.414L16,9.414z M44,53c0,1.654-1.346,3-3,3H11 c-1.654,0-3-1.346-3-3v-0.026C8.838,53.609,9.87,54,11,54h30c1.13,0,2.162-0.391,3-1.026V53z M44,48v1c0,1.654-1.346,3-3,3H11 c-1.654,0-3-1.346-3-3v-1V18.657C8,18.432,8.03,18.214,8.078,18H15c1.654,0,3-1.346,3-3V8.08C18.215,8.031,18.434,8,18.656,8H41 c1.654,0,3,1.346,3,3v1.099c-6.187,0.745-11,6.017-11,12.401v12.502l11-0.022V48z M45.958,34.977L35,34.998V24.5 C35,18.71,39.71,14,45.5,14S56,18.71,56,24.5C56,30.151,51.572,34.753,45.958,34.977z"/><linearGradient id="dPhi9T_Oj5g4qQ9hVZsNMc" x1="45" x2="45" y1="6.66" y2="56.989" gradientUnits="userSpaceOnUse"><stop offset="0" stop-color="#1a6dff"/><stop offset="1" stop-color="#c822ff"/></linearGradient><path fill="url(#dPhi9T_Oj5g4qQ9hVZsNMc)" d="M45,28c-1.103,0-2,0.897-2,2s0.897,2,2,2c1.102,0,2-0.897,2-2S46.102,28,45,28z"/><linearGradient id="dPhi9T_Oj5g4qQ9hVZsNMd" x1="45" x2="45" y1="6.66" y2="56.989" gradientUnits="userSpaceOnUse"><stop offset="0" stop-color="#1a6dff"/><stop offset="1" stop-color="#c822ff"/></linearGradient><path fill="url(#dPhi9T_Oj5g4qQ9hVZsNMd)" d="M45,17c-2.206,0-4,2-4,4h2c0-1,0.897-2,2-2c1.102,0,2,0.897,2,2c0,1.103-0.897,2-2,2h-1v3h2 v-1.126C48,24,49,22.861,49,21C49,18.794,47.206,17,45,17z"/><linearGradient id="dPhi9T_Oj5g4qQ9hVZsNMe" x1="20" x2="20" y1="6.66" y2="56.989" gradientUnits="userSpaceOnUse"><stop offset="0" stop-color="#1a6dff"/><stop offset="1" stop-color="#c822ff"/></linearGradient><rect width="18" height="2" x="11" y="31" fill="url(#dPhi9T_Oj5g4qQ9hVZsNMe)"/><linearGradient id="dPhi9T_Oj5g4qQ9hVZsNMf" x1="20" x2="20" y1="6.66" y2="56.989" gradientUnits="userSpaceOnUse"><stop offset="0" stop-color="#1a6dff"/><stop offset="1" stop-color="#c822ff"/></linearGradient><rect width="18" height="2" x="11" y="35" fill="url(#dPhi9T_Oj5g4qQ9hVZsNMf)"/><linearGradient id="dPhi9T_Oj5g4qQ9hVZsNMg" x1="23" x2="23" y1="6.66" y2="56.989" gradientUnits="userSpaceOnUse"><stop offset="0" stop-color="#1a6dff"/><stop offset="1" stop-color="#c822ff"/></linearGradient><rect width="24" height="2" x="11" y="39" fill="url(#dPhi9T_Oj5g4qQ9hVZsNMg)"/><linearGradient id="dPhi9T_Oj5g4qQ9hVZsNMh" x1="23" x2="23" y1="6.66" y2="56.989" gradientUnits="userSpaceOnUse"><stop offset="0" stop-color="#1a6dff"/><stop offset="1" stop-color="#c822ff"/></linearGradient><rect width="24" height="2" x="11" y="43" fill="url(#dPhi9T_Oj5g4qQ9hVZsNMh)"/></svg>