<svg xmlns="http://www.w3.org/2000/svg"  viewBox="0 0 64 64" width="96px" height="96px"><linearGradient id="SVGID_1_" x1="39" x2="39" y1="41.75" y2="46.254" gradientUnits="userSpaceOnUse"><stop offset="0" stop-color="#6dc7ff"/><stop offset="1" stop-color="#e6abff"/></linearGradient><path fill="url(#SVGID_1_)" d="M41,45c0,0.6-0.4,1-1,1h-2c-0.6,0-1-0.4-1-1v-2c0-0.6,0.4-1,1-1h2c0.6,0,1,0.4,1,1V45z"/><linearGradient id="SVGID_2_" x1="45" x2="45" y1="41.75" y2="46.254" gradientUnits="userSpaceOnUse"><stop offset="0" stop-color="#6dc7ff"/><stop offset="1" stop-color="#e6abff"/></linearGradient><path fill="url(#SVGID_2_)" d="M47,45c0,0.6-0.4,1-1,1h-2c-0.6,0-1-0.4-1-1v-2c0-0.6,0.4-1,1-1h2c0.6,0,1,0.4,1,1V45z"/><linearGradient id="SVGID_3_" x1="51" x2="51" y1="41.75" y2="46.254" gradientUnits="userSpaceOnUse"><stop offset="0" stop-color="#6dc7ff"/><stop offset="1" stop-color="#e6abff"/></linearGradient><path fill="url(#SVGID_3_)" d="M53,45c0,0.6-0.4,1-1,1h-2c-0.6,0-1-0.4-1-1v-2c0-0.6,0.4-1,1-1h2c0.6,0,1,0.4,1,1V45z"/><linearGradient id="SVGID_4_" x1="39" x2="39" y1="48" y2="52.313" gradientUnits="userSpaceOnUse"><stop offset="0" stop-color="#6dc7ff"/><stop offset="1" stop-color="#e6abff"/></linearGradient><path fill="url(#SVGID_4_)" d="M41,51c0,0.6-0.4,1-1,1h-2c-0.6,0-1-0.4-1-1v-2c0-0.6,0.4-1,1-1h2c0.6,0,1,0.4,1,1V51z"/><linearGradient id="SVGID_5_" x1="45" x2="45" y1="48" y2="52.313" gradientUnits="userSpaceOnUse"><stop offset="0" stop-color="#6dc7ff"/><stop offset="1" stop-color="#e6abff"/></linearGradient><path fill="url(#SVGID_5_)" d="M47,51c0,0.6-0.4,1-1,1h-2c-0.6,0-1-0.4-1-1v-2c0-0.6,0.4-1,1-1h2c0.6,0,1,0.4,1,1V51z"/><linearGradient id="SVGID_6_" x1="51" x2="51" y1="48" y2="52.313" gradientUnits="userSpaceOnUse"><stop offset="0" stop-color="#6dc7ff"/><stop offset="1" stop-color="#e6abff"/></linearGradient><path fill="url(#SVGID_6_)" d="M53,51c0,0.6-0.4,1-1,1h-2c-0.6,0-1-0.4-1-1v-2c0-0.6,0.4-1,1-1h2c0.6,0,1,0.4,1,1V51z"/><linearGradient id="SVGID_7_" x1="45" x2="45" y1="5.468" y2="57.738" gradientUnits="userSpaceOnUse"><stop offset="0" stop-color="#1a6dff"/><stop offset="1" stop-color="#c822ff"/></linearGradient><path fill="url(#SVGID_7_)" d="M52,30H38c-1.1,0-2,0.9-2,2v6h18v-6C54,30.9,53.1,30,52,30z M52,36H38v-4h14V36z"/><linearGradient id="SVGID_8_" x1="20" x2="20" y1="5.468" y2="57.738" gradientUnits="userSpaceOnUse"><stop offset="0" stop-color="#1a6dff"/><stop offset="1" stop-color="#c822ff"/></linearGradient><path fill="url(#SVGID_8_)" d="M13,43h6h2h6c1.1,0,2-0.9,2-2V28c0-1.1-0.9-2-2-2H13c-1.1,0-2,0.9-2,2v13C11,42.1,11.9,43,13,43z M21,28h6v3 h-6V28z M21,33h6v3h-6V33z M21,38h6v3h-6V38z M13,28h6v3h-6V28z M13,33h6v3h-6V33z M13,38h6v3h-6V38z"/><linearGradient id="SVGID_9_" x1="32" x2="32" y1="5.468" y2="57.738" gradientUnits="userSpaceOnUse"><stop offset="0" stop-color="#1a6dff"/><stop offset="1" stop-color="#c822ff"/></linearGradient><path fill="url(#SVGID_9_)" d="M55,26h-7V9c0-1.7-1.3-3-3-3H9C7.3,6,6,7.3,6,9v46c0,1.7,1.3,3,3,3h46c1.7,0,3-1.3,3-3V29 C58,27.3,56.7,26,55,26z M8,9c0-0.6,0.4-1,1-1h36c0.6,0,1,0.4,1,1v17H35c-1.7,0-3,1.3-3,3v23H9c-0.6,0-1-0.4-1-1V9z M8,55v-1.2 C8.3,53.9,8.6,54,9,54h23v1c0,0.4,0.1,0.7,0.2,1H9C8.4,56,8,55.6,8,55z M56,55c0,0.6-0.4,1-1,1H35c-0.6,0-1-0.4-1-1V29 c0-0.6,0.4-1,1-1h20c0.6,0,1,0.4,1,1V55z"/><linearGradient id="SVGID_10_" x1="27" x2="27" y1="5.468" y2="57.738" gradientUnits="userSpaceOnUse"><stop offset="0" stop-color="#1a6dff"/><stop offset="1" stop-color="#c822ff"/></linearGradient><rect width="32" height="2" x="11" y="13" fill="url(#SVGID_10_)"/><linearGradient id="SVGID_11_" x1="18.5" x2="18.5" y1="5.468" y2="57.738" gradientUnits="userSpaceOnUse"><stop offset="0" stop-color="#1a6dff"/><stop offset="1" stop-color="#c822ff"/></linearGradient><rect width="15" height="2" x="11" y="46" fill="url(#SVGID_11_)"/><linearGradient id="SVGID_12_" x1="35.5" x2="35.5" y1="5.468" y2="57.738" gradientUnits="userSpaceOnUse"><stop offset="0" stop-color="#1a6dff"/><stop offset="1" stop-color="#c822ff"/></linearGradient><rect width="15" height="2" x="28" y="17" fill="url(#SVGID_12_)"/><linearGradient id="SVGID_13_" x1="18.5" x2="18.5" y1="5.468" y2="57.738" gradientUnits="userSpaceOnUse"><stop offset="0" stop-color="#1a6dff"/><stop offset="1" stop-color="#c822ff"/></linearGradient><rect width="15" height="2" x="11" y="17" fill="url(#SVGID_13_)"/><linearGradient id="SVGID_14_" x1="18.5" x2="18.5" y1="5.468" y2="57.738" gradientUnits="userSpaceOnUse"><stop offset="0" stop-color="#1a6dff"/><stop offset="1" stop-color="#c822ff"/></linearGradient><rect width="15" height="2" x="11" y="21" fill="url(#SVGID_14_)"/><linearGradient id="SVGID_15_" x1="35.5" x2="35.5" y1="5.468" y2="57.738" gradientUnits="userSpaceOnUse"><stop offset="0" stop-color="#1a6dff"/><stop offset="1" stop-color="#c822ff"/></linearGradient><rect width="15" height="2" x="28" y="21" fill="url(#SVGID_15_)"/></svg>