<svg xmlns="http://www.w3.org/2000/svg"  viewBox="0 0 64 64" width="128px" height="128px"><linearGradient id="ZaoPT48~KJ4YYBYL_inlVa" x1="43" x2="43" y1="40.511" y2="44.672" gradientUnits="userSpaceOnUse"><stop offset="0" stop-color="#6dc7ff"/><stop offset="1" stop-color="#e6abff"/></linearGradient><path fill="url(#ZaoPT48~KJ4YYBYL_inlVa)" d="M43,45c1.657,0,3-1,3-3h-6C40,44,41.343,45,43,45z"/><linearGradient id="ZaoPT48~KJ4YYBYL_inlVb" x1="39.594" x2="39.594" y1="36.532" y2="39.702" gradientUnits="userSpaceOnUse"><stop offset="0" stop-color="#6dc7ff"/><stop offset="1" stop-color="#e6abff"/></linearGradient><circle cx="39.594" cy="38.5" r="1.5" fill="url(#ZaoPT48~KJ4YYBYL_inlVb)"/><g><linearGradient id="ZaoPT48~KJ4YYBYL_inlVc" x1="46.438" x2="46.438" y1="36.532" y2="39.702" gradientUnits="userSpaceOnUse"><stop offset="0" stop-color="#6dc7ff"/><stop offset="1" stop-color="#e6abff"/></linearGradient><circle cx="46.438" cy="38.5" r="1.5" fill="url(#ZaoPT48~KJ4YYBYL_inlVc)"/></g><g><linearGradient id="ZaoPT48~KJ4YYBYL_inlVd" x1="13.5" x2="13.5" y1="6.489" y2="59.779" gradientUnits="userSpaceOnUse"><stop offset="0" stop-color="#1a6dff"/><stop offset="1" stop-color="#c822ff"/></linearGradient><path fill="url(#ZaoPT48~KJ4YYBYL_inlVd)" d="M18,33H9c-1.103,0-2,0.899-2,2.001v20C7,56.104,7.897,57,9,57h9c1.103,0,2-0.896,2-1.999v-20 C20,33.899,19.102,33,18,33z M18,55H9V39h9V55z M18,37H9v-2h9V37z"/><linearGradient id="ZaoPT48~KJ4YYBYL_inlVe" x1="29.5" x2="29.5" y1="6.489" y2="59.779" gradientUnits="userSpaceOnUse"><stop offset="0" stop-color="#1a6dff"/><stop offset="1" stop-color="#c822ff"/></linearGradient><path fill="url(#ZaoPT48~KJ4YYBYL_inlVe)" d="M25,26h9v2h2v-5.999C36,20.899,35.102,20,34,20h-9c-1.103,0-2,0.899-2,2.001v33 C23,56.104,23.897,57,25,57h3v-2h-3V26z M25,22h9v2h-9V22z"/><linearGradient id="ZaoPT48~KJ4YYBYL_inlVf" x1="43" x2="43" y1="6.489" y2="59.779" gradientUnits="userSpaceOnUse"><stop offset="0" stop-color="#1a6dff"/><stop offset="1" stop-color="#c822ff"/></linearGradient><path fill="url(#ZaoPT48~KJ4YYBYL_inlVf)" d="M51.103,43.891c0.147-0.305,0.278-0.618,0.391-0.941C53.465,42.704,55,41.037,55,39 c0-1.875-1.301-3.441-3.044-3.872C51.952,35.085,52,9.001,52,9.001C52,7.899,51.102,7,50,7h-9c-1.103,0-2,0.899-2,2.001V25h2V13h9 v17.355C48.349,28.312,45.826,27,43,27c-4.669,0-8.516,3.573-8.956,8.128C32.301,35.559,31,37.125,31,39 c0,2.037,1.535,3.704,3.507,3.95c0.11,0.316,0.238,0.623,0.381,0.922C31.914,46.254,30,49.903,30,54c0,1.654,1.346,3,3,3h20 c1.654,0,3-1.346,3-3C56,49.904,54.076,46.271,51.103,43.891z M41,11V9h9v2H41z M53,39c0,0.752-0.422,1.401-1.038,1.742 C51.983,40.497,52,40.25,52,40v-2.722C52.595,37.625,53,38.263,53,39z M36,36c0-3.859,3.141-7,7-7s7,3.141,7,7v4 c0,3.859-3.141,7-7,7s-7-3.141-7-7V36z M33,39c0-0.737,0.405-1.375,1-1.722V40c0,0.25,0.017,0.497,0.038,0.742 C33.422,40.401,33,39.752,33,39z M43,49c2.836,0,5.365-1.321,7.016-3.377c0.433,0.36,0.847,0.74,1.221,1.16 C49.318,49.428,46.301,51,43,51c-3.304,0-6.322-1.573-8.24-4.221c0.373-0.423,0.772-0.82,1.205-1.181 C37.615,47.668,40.153,49,43,49z M53,55H33c-0.552,0-1-0.448-1-1c0-2.02,0.554-3.908,1.511-5.532C35.815,51.329,39.262,53,43,53 c3.727,0,7.165-1.66,9.47-4.506C53.431,50.11,54,51.981,54,54C54,54.552,53.552,55,53,55z"/></g></svg>