<svg xmlns="http://www.w3.org/2000/svg"  viewBox="0 0 64 64" width="128px" height="128px"><linearGradient id="uAVUsERWsmHg_VqbqhCB0a" x1="33.364" x2="30.114" y1="4.917" y2="57.167" gradientUnits="userSpaceOnUse" spreadMethod="reflect"><stop offset="0" stop-color="#1a6dff"/><stop offset="1" stop-color="#c822ff"/></linearGradient><path fill="url(#uAVUsERWsmHg_VqbqhCB0a)" d="M58,19c0-6.065-4.935-11-11-11c-5.099,0-9.386,3.492-10.627,8.207 C33.477,14.761,30.263,14,27,14C15.42,14,6,23.421,6,35s9.42,21,21,21s21-9.421,21-21c0-1.702-0.211-3.384-0.612-5.02 C53.273,29.774,58,24.935,58,19z M15.077,49.772c0.34-3.317,2.08-6.363,4.745-8.366C21.466,43.584,24.067,45,27,45 c2.933,0,5.534-1.416,7.179-3.594c2.667,2.002,4.405,5.045,4.745,8.366C35.66,52.411,31.514,54,27,54 C22.486,54,18.34,52.411,15.077,49.772z M34,36c0,3.859-3.14,7-7,7s-7-3.141-7-7v-4c0-3.859,3.14-7,7-7s7,3.141,7,7V36z M40.695,48.136c-0.711-3.381-2.678-6.406-5.492-8.452C35.711,38.558,36,37.313,36,36v-4c0-4.963-4.038-9-9-9s-9,4.037-9,9v4 c0,1.313,0.289,2.558,0.797,3.684c-2.813,2.046-4.78,5.074-5.492,8.453C10.028,44.721,8,40.096,8,35c0-10.477,8.523-19,19-19 c3.165,0,6.274,0.797,9.036,2.293C36.021,18.528,36,18.761,36,19v8c0,1.654,1.346,3,3,3h6.321C45.763,31.624,46,33.3,46,35 C46,40.096,43.972,44.72,40.695,48.136z M47,28h-8c-0.551,0-1-0.448-1-1v-8c0-4.963,4.038-9,9-9s9,4.037,9,9S51.962,28,47,28z"/><linearGradient id="uAVUsERWsmHg_VqbqhCB0b" x1="47" x2="47" y1="13.813" y2="16.313" gradientUnits="userSpaceOnUse" spreadMethod="reflect"><stop offset="0" stop-color="#6dc7ff"/><stop offset="1" stop-color="#e6abff"/></linearGradient><path fill="url(#uAVUsERWsmHg_VqbqhCB0b)" d="M42 14H52V16H42z"/><linearGradient id="uAVUsERWsmHg_VqbqhCB0c" x1="47" x2="47" y1="17.75" y2="20.313" gradientUnits="userSpaceOnUse" spreadMethod="reflect"><stop offset="0" stop-color="#6dc7ff"/><stop offset="1" stop-color="#e6abff"/></linearGradient><path fill="url(#uAVUsERWsmHg_VqbqhCB0c)" d="M42 18H52V20H42z"/><linearGradient id="uAVUsERWsmHg_VqbqhCB0d" x1="47" x2="47" y1="21.875" y2="24.625" gradientUnits="userSpaceOnUse" spreadMethod="reflect"><stop offset="0" stop-color="#6dc7ff"/><stop offset="1" stop-color="#e6abff"/></linearGradient><path fill="url(#uAVUsERWsmHg_VqbqhCB0d)" d="M42 22H52V24H42z"/><linearGradient id="uAVUsERWsmHg_VqbqhCB0e" x1="27" x2="27" y1="36.313" y2="41.4" gradientUnits="userSpaceOnUse" spreadMethod="reflect"><stop offset="0" stop-color="#6dc7ff"/><stop offset="1" stop-color="#e6abff"/></linearGradient><path fill="url(#uAVUsERWsmHg_VqbqhCB0e)" d="M23,37c0,2,1.791,4,4,4s4-2,4-4H23z"/></svg>