<svg fill="#000000" xmlns="http://www.w3.org/2000/svg"  viewBox="0 0 24 24" width="240px" height="240px"><path d="M 12 2 C 9.441406 2 6.765625 2.523438 5.59375 3.28125 C 5.171875 3.554688 5.054688 4.113281 5.28125 4.5625 L 6.71875 7.4375 C 6.890625 7.777344 7.246094 8 7.625 8 L 16.375 8 C 16.753906 8 17.113281 7.777344 17.28125 7.4375 L 18.71875 4.5625 C 18.945313 4.109375 18.804688 3.550781 18.375 3.28125 C 17.195313 2.535156 14.558594 2 12 2 Z M 11 3 L 13 3 L 13 4 L 14 4 L 14 6 L 13 6 L 13 7 L 11 7 L 11 6 L 10 6 L 10 4 L 11 4 Z M 5.53125 7.5 C 3.308594 9.953125 2.222656 16.433594 3.78125 22 L 8.0625 20.34375 C 9.109375 21.402344 10.417969 22.09375 12 22.09375 C 13.585938 22.09375 14.886719 21.375 15.9375 20.3125 L 20.53125 22 C 21.476563 17.5 20.894531 11.46875 18.375 7.65625 L 18.0625 8.34375 C 17.867188 8.738281 17.464844 9 17.03125 9 L 6.96875 9 C 6.535156 9 6.132813 8.738281 5.9375 8.34375 Z M 10.5625 9.75 C 10.5625 9.75 13.164063 12.609375 15.59375 13 C 15.886719 14.183594 15.921875 15.683594 15.875 17 C 14.984375 18.691406 13.695313 20.09375 12 20.09375 C 10.089844 20.09375 8.695313 18.300781 7.8125 16.34375 C 7.75 15.308594 7.734375 14.15625 7.90625 13 C 9.402344 12.113281 10.5625 9.75 10.5625 9.75 Z M 9.75 13.90625 C 9.074219 13.898438 8.40625 14.035156 8.40625 14.34375 C 8.40625 15.089844 9.003906 15.6875 9.75 15.6875 C 10.496094 15.6875 11.09375 15.089844 11.09375 14.34375 C 11.09375 14.074219 10.425781 13.914063 9.75 13.90625 Z M 14.25 13.90625 C 13.574219 13.898438 12.90625 14.035156 12.90625 14.34375 C 12.90625 15.089844 13.503906 15.6875 14.25 15.6875 C 14.996094 15.6875 15.59375 15.089844 15.59375 14.34375 C 15.59375 14.074219 14.925781 13.914063 14.25 13.90625 Z"/></svg>